<svg width="200" height="200" viewBox="0 0 200 200" fill="none" xmlns="http://www.w3.org/2000/svg">
<path d="M52.3887 52.1069C57.4322 59.1118 62.6831 66.4456 69.7367 71.6146C80.372 79.281 91.4452 87.0144 102.653 94.3726C108.257 98.0517 113.898 101.637 119.55 105.074C122.364 106.793 125.191 108.474 128.005 110.11C130.832 111.741 133.633 113.356 136.459 114.862C144.085 118.72 152.76 120.076 160.886 120.989C154.746 115.544 148.825 109.537 141.711 105.293C139.006 103.759 136.252 102.233 133.511 100.629C130.77 99.0336 128.006 97.3914 125.252 95.7102C119.734 92.3467 114.19 88.8272 108.672 85.2065C97.6344 77.9653 86.6943 70.3209 76.1444 62.7203C69.0786 57.7133 60.5631 54.9186 52.3887 52.1069Z" fill="black"/>
<path d="M127.26 29.9137C128.186 28.0766 129.099 26.2395 130.001 24.3975C129.002 24.2111 127.991 24.0235 126.98 23.8371C124.605 29.4422 120.925 36.4033 118.184 44.7969C117.55 46.7364 117.039 48.7757 116.43 50.8443C115.833 52.9177 115.224 55.0387 114.591 57.2011C113.312 61.5234 111.947 66.0053 110.534 70.581C107.695 79.7337 104.649 89.2591 101.616 98.6396C98.5827 108.021 95.5855 117.258 92.8445 125.842C91.4801 130.135 90.1766 134.263 88.9828 138.169C87.8011 142.082 87.1065 145.887 86.6557 149.428C85.5471 158.891 85.8891 166.41 86.62 169.979C87.619 166.498 91.2486 160.333 95.281 151.906C96.7551 148.739 98.2421 145.243 99.4604 141.393C100.642 137.536 101.933 133.437 103.297 129.169C106.014 120.63 109.011 111.404 112.045 102.009C115.078 92.6141 118.148 83.0497 121.01 73.824C122.436 69.2117 123.813 64.6835 125.104 60.3015C125.75 58.1111 126.371 55.9572 126.98 53.8472C127.565 51.7336 128.186 49.6821 128.636 47.6391C130.573 38.8081 130.501 30.5776 130.014 24.322C129.929 23.1391 129.209 22.4812 128.417 22.547C127.613 22.5726 126.98 23.3072 127.004 23.7616C127.077 25.8094 127.175 27.8609 127.26 29.9137Z" fill="black"/>
<path d="M155.672 77.7342C153.065 76.0214 148.765 75.4354 144.111 75.8508C139.457 76.2614 134.402 77.6635 130.04 80.0014C126.605 81.8677 123.303 83.8047 120.355 85.5017C117.419 87.1951 114.8 88.6557 112.936 89.5195C98.9752 96.0395 78.9235 101.723 60.7839 107.624C52.6338 110.52 45.6648 116.011 40 120.989C47.5165 120.298 55.9956 120.427 64.1578 118.03C82.0782 112.225 102.289 106.54 117.553 99.4603C120.051 98.2969 122.816 96.7351 125.825 95.0052C128.822 93.2777 132.05 91.3907 135.279 89.6279C139.372 87.3632 142.978 84.4747 146.292 82.1223C149.617 79.7735 152.59 77.9486 155.672 77.7342Z" fill="black"/>
<path d="M81.6621 18.6538C82.0398 20.2253 82.5032 23.02 83.1123 26.7807C83.7336 30.5365 84.4766 35.2597 85.7071 40.5614C86.6329 44.5378 87.8749 48.8211 89.6414 53.2385C91.3103 57.6851 93.0891 62.4228 94.9164 67.3567C98.5712 77.2232 102.457 87.8682 106.295 98.5229C110.12 109.176 113.897 119.841 117.344 129.744C119.074 134.696 120.718 139.458 122.241 143.932C123.691 148.429 125.471 152.489 127.274 156.113C129.674 160.943 132.061 165.018 133.925 168.268C135.789 171.515 137.141 173.924 137.762 175.342C137.859 173.788 137.824 170.964 137.58 167.174C137.336 163.387 136.922 158.619 135.971 153.252C135.265 149.229 134.217 144.879 132.621 140.401C131.086 135.897 129.442 131.112 127.699 126.139C124.24 116.195 120.451 105.497 116.601 94.811C112.763 84.1258 108.866 73.4491 105.199 63.546C103.359 58.5951 101.58 53.8354 99.8988 49.3657C99.0704 47.1229 98.2175 44.9715 97.2673 42.9492C96.3292 40.9245 95.3431 39.0143 94.3442 37.2174C91.6641 32.4285 88.9474 28.4314 86.7302 25.2908C84.4886 22.155 82.7342 19.8757 81.6621 18.6538Z" fill="black"/>
<path d="M61.9395 32.8696C65.6795 41.4058 69.8951 50.3234 76.23 57.6316C95.7097 79.097 117.528 101.083 135.924 123.39C142.137 130.746 150.043 136.481 157.462 142.645C154.355 133.54 150.579 124.11 144.378 116.417C125.532 93.5783 103.616 71.4708 84.3187 50.2759C77.7402 43.3648 69.59 38.2201 61.9395 32.8696Z" fill="black"/>
<path d="M113.458 10C112.581 12.4036 111.425 15.9401 110.17 20.3709C108.927 24.8029 107.575 30.1327 106.636 36.1447C106.283 38.3996 106.003 40.7508 105.82 43.1861C105.638 45.6214 105.577 48.1431 105.455 50.7295C105.248 55.9033 105.053 61.3489 104.87 66.9711C104.504 78.2154 104.2 90.1651 104.005 102.054C103.798 113.944 103.676 125.772 103.7 136.773C103.7 142.274 103.75 147.569 103.823 152.563C103.823 157.559 104.31 162.25 105.016 166.526C105.954 172.228 107.246 177.196 108.452 181.191C109.682 185.184 110.84 188.215 111.802 190C111.705 187.985 111.984 184.872 112.496 180.833C112.995 176.795 113.738 171.842 114.274 166.194C114.676 161.957 114.933 157.329 114.787 152.395C114.714 147.461 114.665 142.216 114.665 136.757C114.64 125.841 114.762 114.077 114.957 102.245C115.164 90.4137 115.469 78.5139 115.822 67.3243C116.005 61.729 116.199 56.3114 116.406 51.1692C116.504 48.5975 116.65 46.0965 116.687 43.6722C116.724 41.2479 116.651 38.8991 116.529 36.6393C116.188 30.6126 115.457 25.2195 114.848 20.701C114.226 16.1826 113.702 12.5425 113.458 10Z" fill="black"/>
<path d="M155.672 100.397C147.985 97.1686 140.676 93.6406 133.062 92.6087C110.171 89.4864 87.4019 84.2443 64.1578 80.0328C56.3976 78.6221 48.1257 80.0365 40 81.7286C47.4069 85.4893 54.5698 89.4461 62.196 90.8215C85.1111 94.9636 108.027 100.252 131.575 103.473C139.433 104.556 147.681 102.676 155.672 100.397Z" fill="black"/>
<path d="M142.624 52.876C138.689 56.873 132.866 60.9249 127.189 66.4484C125.045 68.4987 123.12 70.9364 121.061 73.4277C118.99 75.9153 116.81 78.481 114.556 81.1063C110.036 86.3557 105.2 91.8426 100.29 97.4283C95.3686 103.015 90.3864 108.701 85.55 114.356C80.7136 120.017 76.023 125.629 71.7591 131.131C66.3014 138.644 63.6084 147.45 61.9395 154.786C67.4825 149.651 74.5858 144.723 80.3725 137.863C88.6931 127.28 98.6944 115.824 108.513 104.671C113.423 99.09 118.284 93.5762 122.865 88.2574C125.155 85.5979 127.371 82.986 129.491 80.4375C131.611 77.8926 133.67 75.4329 135.229 72.7601C139.444 65.6907 141.613 58.3812 142.624 52.876Z" fill="black"/>
</svg>
